<svg
  xmlns="http://www.w3.org/2000/svg"
  viewBox="0 0 24 24"
  width="48px"
  height="48px"
>
  <defs>
    <linearGradient id="gradient" x1="0%" y1="0%" x2="100%" y2="100%">
      <stop offset="0%" stop-color="#F58529" />
      <stop offset="25%" stop-color="#FF2B37" />
      <stop offset="50%" stop-color="#FD1D1D" />
      <stop offset="75%" stop-color="#833AB4" />
      <stop offset="100%" stop-color="#A32DA1" />
    </linearGradient>
  </defs>
  <path
    fill="url(#gradient)"
    d="M12 2.163c3.206 0 3.594.012 4.86.07 1.273.059 2.142.268 2.645.57.64.386 1.1.861 1.485 1.485.302.503.511 1.372.57 2.645.058 1.266.07 1.654.07 4.86s-.012 3.594-.07 4.86c-.059 1.273-.268 2.142-.57 2.645-.386.64-.861 1.1-1.485 1.485-.503.302-1.372.511-2.645.57-1.266.058-1.654.07-4.86.07s-3.594-.012-4.86-.07c-1.273-.059-2.142-.268-2.645-.57-.64-.386-1.1-.861-1.485-1.485-.302-.503-.511-1.372-.57-2.645C2.175 15.755 2.163 15.367 2.163 12s.012-3.594.07-4.86c.059-1.273.268-2.142.57-2.645.386-.64.861-1.1 1.485-1.485.503-.302 1.372-.511 2.645-.57C8.406 2.175 8.794 2.163 12 2.163zm0-2.163C8.743 0 8.317.012 7.36.06 6.431.107 5.702.37 5.066.793 4.25 1.18 3.52 1.89 2.83 2.58 2.146 3.27 1.65 4.084 1.18 5.066.576 6.305.33 7.527.33 12c0 4.473.246 5.695.85 6.934.465 1.036 1.141 1.725 2.38 2.4.785.46 1.532.628 2.16.757 1.027.174 2.016.244 4.54.244s3.513-.069 4.54-.244c.628-.129 1.375-.297 2.16-.757 1.239-.675 1.915-1.364 2.38-2.4.604-1.239.85-2.461.85-6.934 0-4.473-.246-5.695-.85-6.934-.465-1.036-1.141-1.725-2.38-2.4-.785-.46-1.532-.628-2.16-.757C15.513.012 14.524 0 12 0zm0 5.837a6.163 6.163 0 100 12.325 6.163 6.163 0 000-12.325zm0 10.638a4.475 4.475 0 110-8.95 4.475 4.475 0 010 8.95zm6.911-10.883a1.445 1.445 0 11-2.893 0 1.445 1.445 0 012.893 0z"
  />
</svg>
